<svg xmlns="http://www.w3.org/2000/svg" viewBox="0 0 64 64" width="512" height="512" fill="none">
    <rect width="64" height="64" rx="12" fill="#fcfbf9"/>
    <path d="M46 7.75A28 28 0 1 0 57.38 20.17" stroke="#0a2e3c" stroke-width="2.2" stroke-linecap="round"/>
    <circle cx="53.45" cy="14" r="2.95" fill="#0a2e3c"/>
    <path d="M28.8 14.7C30.2 12.3 33.8 12.3 35.2 14.7L50.1 40.5C52.2 44.1 50.1 47 46.3 47H17.7C13.9 47 11.8 44.1 13.9 40.5Z" stroke="#0a2e3c" stroke-width="2.4" stroke-linejoin="round"/>
    <path d="M32 22C33.2 30.7 34.4 31.8 42.5 33C34.4 34.2 33.2 35.5 32 43.5C30.8 35.5 29.6 34.2 21.5 33C29.6 31.8 30.8 30.7 32 22Z" fill="#ddac41"/>
</svg>
